#define franck_width 128
#define franck_height 128
static unsigned char franck_bits[] = {
   0x00, 0x00, 0x00, 0x00, 0x00, 0x00, 0x00, 0x00, 0x00, 0x00, 0x00, 0x00,
   0x00, 0x00, 0x00, 0x00, 0x00, 0x00, 0x00, 0x00, 0x00, 0x00, 0x00, 0x00,
   0x00, 0x00, 0x00, 0x00, 0x00, 0x00, 0x00, 0x00, 0x00, 0x00, 0x00, 0x00,
   0x00, 0x00, 0x00, 0x00, 0x00, 0x00, 0x00, 0x00, 0x00, 0x00, 0x00, 0x00,
   0x00, 0x00, 0x00, 0x00, 0x00, 0x00, 0x00, 0x00, 0x00, 0x00, 0x00, 0x00,
   0x00, 0x00, 0x00, 0x00, 0x00, 0x00, 0x00, 0x00, 0x00, 0x00, 0x00, 0x00,
   0x00, 0x00, 0x00, 0x00, 0x00, 0x00, 0x00, 0x00, 0x00, 0x00, 0x00, 0x00,
   0x00, 0x00, 0x00, 0x00, 0x00, 0x00, 0x00, 0x00, 0x00, 0x00, 0x00, 0x00,
   0x00, 0x00, 0x00, 0x00, 0x00, 0x00, 0x00, 0x00, 0x00, 0x00, 0x00, 0x00,
   0x00, 0x00, 0x00, 0x00, 0x00, 0x00, 0x00, 0x00, 0x00, 0x00, 0x00, 0x00,
   0x00, 0x00, 0x00, 0x00, 0x00, 0x00, 0x00, 0x00, 0x00, 0x00, 0x00, 0x00,
   0x00, 0x00, 0x00, 0x00, 0x00, 0x00, 0x00, 0x00, 0x00, 0x00, 0x00, 0x00,
   0x00, 0x00, 0x00, 0x00, 0x00, 0x00, 0x00, 0x00, 0x00, 0x00, 0x00, 0x00,
   0x00, 0x00, 0x00, 0x00, 0x00, 0x00, 0x00, 0x00, 0x00, 0x00, 0x00, 0x00,
   0x00, 0x00, 0x00, 0x00, 0x00, 0x00, 0x00, 0x00, 0x00, 0x00, 0x00, 0x00,
   0x00, 0x00, 0x00, 0x00, 0x00, 0x00, 0x00, 0x00, 0x00, 0x00, 0x00, 0x00,
   0x00, 0x00, 0x00, 0x00, 0x00, 0x00, 0x00, 0x00, 0x00, 0x00, 0x00, 0x00,
   0x00, 0x00, 0x00, 0x00, 0x00, 0x00, 0x00, 0x00, 0x00, 0x00, 0x00, 0x00,
   0x00, 0x00, 0x00, 0x00, 0x00, 0x00, 0x00, 0x00, 0x00, 0x00, 0x00, 0x00,
   0x00, 0x00, 0x00, 0x00, 0x00, 0x00, 0x00, 0x00, 0x00, 0x00, 0x00, 0x00,
   0x00, 0x00, 0x00, 0x00, 0x00, 0x00, 0x00, 0x00, 0x00, 0x00, 0x00, 0x00,
   0x00, 0x00, 0x00, 0x00, 0x00, 0x00, 0x00, 0x00, 0x00, 0x00, 0x00, 0x00,
   0x00, 0x00, 0x00, 0x00, 0x00, 0x00, 0x00, 0x00, 0x00, 0x00, 0x00, 0x00,
   0x00, 0x00, 0x00, 0x00, 0x00, 0x00, 0x00, 0x00, 0x00, 0x00, 0x00, 0x00,
   0x00, 0x00, 0x00, 0x00, 0x00, 0x00, 0x00, 0x00, 0x00, 0x00, 0x00, 0x00,
   0x00, 0x00, 0x00, 0x00, 0x00, 0x00, 0x00, 0x00, 0x00, 0x00, 0x00, 0x00,
   0x00, 0x00, 0x00, 0x00, 0x00, 0x00, 0x00, 0x00, 0x00, 0x00, 0x00, 0x00,
   0x00, 0x00, 0x00, 0x00, 0x00, 0x00, 0x00, 0x00, 0x00, 0x00, 0x00, 0x00,
   0x00, 0x00, 0x00, 0x00, 0x00, 0x00, 0x00, 0x00, 0x00, 0x00, 0x00, 0x00,
   0x00, 0x00, 0x00, 0x00, 0x00, 0x00, 0x00, 0x00, 0x00, 0x00, 0x00, 0x00,
   0x00, 0x00, 0x00, 0x00, 0x00, 0x00, 0x00, 0x00, 0x00, 0x00, 0x00, 0x00,
   0x00, 0x00, 0x00, 0x00, 0x00, 0x00, 0x00, 0x00, 0x00, 0x00, 0x00, 0x00,
   0x00, 0x00, 0x00, 0x00, 0x00, 0x00, 0x00, 0x00, 0x00, 0x00, 0x00, 0x00,
   0x00, 0x00, 0x00, 0x00, 0x00, 0x00, 0x00, 0x00, 0x00, 0x00, 0x00, 0x00,
   0x00, 0x00, 0x00, 0x00, 0x00, 0x00, 0x00, 0x00, 0x00, 0x00, 0x00, 0x00,
   0x00, 0x00, 0x00, 0x00, 0x00, 0x00, 0x00, 0x00, 0x00, 0x00, 0x00, 0x00,
   0x00, 0x00, 0x00, 0x00, 0x00, 0x00, 0x00, 0x00, 0x00, 0x00, 0x00, 0x00,
   0x00, 0x00, 0x00, 0x00, 0x00, 0x00, 0x00, 0x00, 0x00, 0x00, 0x00, 0x00,
   0x00, 0x00, 0x00, 0x00, 0x00, 0x00, 0x00, 0x00, 0x00, 0x00, 0x00, 0x00,
   0x00, 0x00, 0x00, 0x00, 0x00, 0x00, 0x00, 0x00, 0x00, 0x00, 0x00, 0x00,
   0x00, 0x00, 0x00, 0x00, 0x00, 0x00, 0x00, 0x00, 0x00, 0x00, 0x00, 0x00,
   0x00, 0x00, 0x00, 0x00, 0x00, 0x00, 0x00, 0x00, 0x00, 0x00, 0x00, 0x00,
   0x00, 0x00, 0x00, 0x00, 0x00, 0x00, 0x00, 0x00, 0x00, 0x00, 0x00, 0x00,
   0x00, 0x00, 0x00, 0x00, 0x00, 0x00, 0x00, 0x00, 0x00, 0x00, 0x00, 0x00,
   0x00, 0x00, 0x00, 0x00, 0x00, 0x00, 0x00, 0x00, 0x00, 0x04, 0x00, 0x00,
   0x00, 0x00, 0x00, 0x00, 0x00, 0x00, 0x00, 0x00, 0x00, 0x00, 0x00, 0x00,
   0xa0, 0x2d, 0x00, 0x00, 0x00, 0x00, 0x00, 0x00, 0x00, 0x00, 0x00, 0x00,
   0x00, 0x00, 0x00, 0x00, 0x50, 0xd5, 0xbb, 0x00, 0x00, 0x00, 0x00, 0x00,
   0x00, 0x00, 0x00, 0x00, 0x00, 0x00, 0x00, 0x00, 0xa5, 0x7a, 0x55, 0x2b,
   0x00, 0x00, 0x00, 0x00, 0x00, 0x00, 0x00, 0x00, 0x00, 0x00, 0x00, 0xe8,
   0xaa, 0xd6, 0xdf, 0xaa, 0x00, 0x00, 0x00, 0x00, 0x00, 0x00, 0x00, 0x00,
   0x00, 0x00, 0xa0, 0x2b, 0xad, 0x7a, 0xb5, 0x5b, 0x03, 0x00, 0x00, 0x00,
   0x00, 0x00, 0x00, 0x00, 0x00, 0x00, 0x54, 0x6a, 0xbb, 0xd7, 0xbf, 0x6a,
   0x1d, 0x00, 0x00, 0x00, 0x00, 0x00, 0x00, 0x00, 0x00, 0x48, 0x51, 0xdb,
   0x6a, 0xbd, 0xd5, 0xd6, 0x2a, 0x00, 0x00, 0x00, 0x00, 0x00, 0x00, 0x00,
   0x00, 0x01, 0xa4, 0xb6, 0xdf, 0xb5, 0xbf, 0x5d, 0x55, 0x00, 0x00, 0x00,
   0x00, 0x00, 0x00, 0x00, 0x00, 0x24, 0x49, 0xed, 0xba, 0xee, 0xea, 0xaa,
   0xb5, 0x00, 0x00, 0x00, 0x00, 0x00, 0x00, 0x00, 0x00, 0x00, 0x48, 0xba,
   0xf7, 0x5d, 0xbf, 0xbf, 0x56, 0x05, 0x00, 0x00, 0x00, 0x00, 0x00, 0x00,
   0x00, 0x48, 0x25, 0x75, 0xad, 0xfb, 0x6a, 0x55, 0x55, 0x09, 0x00, 0x00,
   0x00, 0x00, 0x00, 0x00, 0x00, 0x00, 0x40, 0xca, 0x7f, 0xab, 0xfd, 0xf7,
   0xaa, 0x2a, 0x00, 0x00, 0x00, 0x00, 0x00, 0x00, 0x80, 0x20, 0x15, 0x29,
   0xd5, 0xef, 0x57, 0xad, 0x2a, 0x49, 0x00, 0x00, 0x00, 0x00, 0x00, 0x00,
   0x00, 0x00, 0x20, 0x55, 0xb5, 0x5a, 0xfd, 0x6f, 0xab, 0xaa, 0x02, 0x00,
   0x00, 0x00, 0x00, 0x00, 0x00, 0x44, 0x42, 0x48, 0xad, 0xef, 0x57, 0xdd,
   0xaa, 0x4a, 0x09, 0x00, 0x00, 0x00, 0x00, 0x00, 0x00, 0x08, 0x88, 0x52,
   0xb5, 0x7a, 0xfd, 0xbb, 0x5b, 0xb5, 0x0a, 0x00, 0x00, 0x00, 0x00, 0x00,
   0x00, 0x40, 0x22, 0x48, 0xaa, 0xad, 0x57, 0x77, 0xad, 0xaa, 0x12, 0x00,
   0x00, 0x00, 0x00, 0x00, 0xa0, 0x00, 0x04, 0x81, 0x52, 0xf5, 0xfe, 0xae,
   0x7b, 0xb7, 0xaa, 0x00, 0x00, 0x00, 0x00, 0x00, 0x08, 0x8a, 0x10, 0x54,
   0x54, 0xd7, 0xab, 0x7b, 0xd7, 0xd5, 0x2a, 0x11, 0x20, 0x01, 0x00, 0x00,
   0x00, 0x10, 0x80, 0x80, 0x54, 0xbd, 0x7e, 0x77, 0x7d, 0x77, 0x2b, 0x42,
   0x02, 0x00, 0x00, 0x80, 0x24, 0x00, 0x09, 0x48, 0xd2, 0xea, 0xfb, 0xff,
   0xab, 0xad, 0x56, 0x24, 0x48, 0x00, 0x00, 0x10, 0x80, 0x22, 0x20, 0x00,
   0xa8, 0xdf, 0x6e, 0x5b, 0xff, 0xdd, 0xd5, 0x04, 0x02, 0x02, 0x00, 0x40,
   0x15, 0x08, 0x00, 0x49, 0xb5, 0xfa, 0xfb, 0xff, 0x55, 0xbb, 0x2a, 0xa9,
   0x48, 0x88, 0x08, 0x04, 0x20, 0x01, 0x22, 0xaa, 0xee, 0x5f, 0x6f, 0xdb,
   0xfe, 0x6e, 0xb7, 0x0a, 0x02, 0x00, 0xa2, 0xa8, 0xaa, 0xd4, 0xda, 0xff,
   0x7f, 0xf5, 0xfd, 0xff, 0xab, 0xbb, 0xad, 0x52, 0x28, 0x21, 0x08, 0x95,
   0xaa, 0xb5, 0xff, 0xff, 0xff, 0xbf, 0xff, 0xdb, 0xfe, 0xee, 0xbb, 0x0a,
   0x02, 0x04, 0x52, 0x6a, 0x7f, 0xff, 0xff, 0xff, 0xff, 0xff, 0x7f, 0xff,
   0xfb, 0xbb, 0xd6, 0x52, 0xaa, 0x40, 0x48, 0x69, 0xeb, 0xfd, 0xff, 0xff,
   0xff, 0xff, 0xff, 0x6d, 0xdf, 0xff, 0xbf, 0x25, 0x04, 0x0a, 0x51, 0xed,
   0x5f, 0xff, 0xff, 0xff, 0xff, 0xff, 0xff, 0xff, 0x7b, 0xb7, 0x6a, 0x95,
   0x52, 0x20, 0x8a, 0x7a, 0xf5, 0xfe, 0xff, 0xff, 0xff, 0xff, 0xff, 0x7f,
   0xf7, 0xfe, 0xdf, 0x2b, 0x0a, 0x85, 0x50, 0xff, 0xaf, 0xff, 0xff, 0xff,
   0xff, 0xff, 0xff, 0xdf, 0xdf, 0xff, 0xbf, 0x4a, 0x52, 0x10, 0xd5, 0x5e,
   0xf9, 0xff, 0xff, 0xff, 0xff, 0xff, 0xff, 0xff, 0x7a, 0xfb, 0xf6, 0x2b,
   0x8a, 0x22, 0xd2, 0xbf, 0xf6, 0xff, 0xff, 0xff, 0xff, 0xff, 0xff, 0xff,
   0xef, 0xff, 0xbf, 0xaa, 0x25, 0x8a, 0xf4, 0x57, 0xfd, 0xff, 0xff, 0xff,
   0xff, 0xff, 0xff, 0xff, 0x7f, 0xf7, 0xff, 0x2f, 0x4a, 0x51, 0xbd, 0xd5,
   0xff, 0xff, 0xff, 0xff, 0xff, 0xff, 0xff, 0xff, 0xff, 0xff, 0xb7, 0xaa,
   0x54, 0x24, 0xfe, 0xab, 0xfe, 0xff, 0xff, 0xff, 0xff, 0xff, 0xff, 0xff,
   0xff, 0xff, 0xff, 0x2b, 0xa5, 0xea, 0xff, 0xea, 0xff, 0xff, 0xff, 0xff,
   0xff, 0xff, 0xff, 0xff, 0xff, 0xf7, 0xbf, 0x56, 0x95, 0x54, 0xff, 0xab,
   0xff, 0xff, 0xff, 0xff, 0xff, 0xff, 0xff, 0xff, 0xff, 0xdf, 0xff, 0x55,
   0xaa, 0xd4, 0x7f, 0xd5, 0xff, 0xff, 0xff, 0xff, 0xff, 0xff, 0xff, 0xff,
   0xff, 0xff, 0xef, 0x56, 0x55, 0xd5, 0xff, 0xfb, 0xff, 0xff, 0xff, 0xff,
   0xff, 0xff, 0xff, 0xff, 0xff, 0xff, 0xff, 0x5f, 0xaa, 0xfa, 0xbf, 0xee,
   0xff, 0xff, 0xff, 0xff, 0xff, 0xff, 0xff, 0xff, 0xff, 0xff, 0xbd, 0xaa,
   0xaa, 0xe4, 0xff, 0xff, 0xff, 0xff, 0xff, 0xff, 0xff, 0xff, 0xff, 0xff,
   0xff, 0xff, 0xff, 0x5b, 0x2a, 0xfd, 0xff, 0xfe, 0x5f, 0xff, 0xff, 0xff,
   0xff, 0xff, 0xff, 0xff, 0xff, 0xff, 0xf7, 0xae, 0xaa, 0xf4, 0xdf, 0xff,
   0x4f, 0xfe, 0xff, 0xff, 0xff, 0x7f, 0xfd, 0xff, 0xbb, 0xfd, 0xee, 0x5d,
   0xaa, 0xfa, 0xff, 0xff, 0x53, 0xfd, 0xff, 0xff, 0xff, 0x7f, 0xf9, 0xff,
   0xef, 0xb7, 0xbf, 0xab, 0x92, 0xfe, 0x7f, 0xff, 0x2b, 0xff, 0xff, 0xff,
   0xff, 0x3f, 0xf5, 0xff, 0xff, 0xff, 0xfd, 0x5e, 0x2a, 0xfd, 0xff, 0xff,
   0x45, 0xfc, 0xff, 0xff, 0xff, 0xbf, 0xea, 0xff, 0x7f, 0x57, 0xab, 0x55,
   0x52, 0xfd, 0x6f, 0xff, 0xaa, 0xfe, 0xff, 0xff, 0xff, 0xbf, 0xf4, 0xff,
   0xff, 0x7e, 0x7d, 0x5b, 0x4a, 0xff, 0x5f, 0xff, 0x25, 0xfd, 0xff, 0xff,
   0xff, 0x3f, 0xe9, 0xff, 0xff, 0xab, 0xd5, 0x56, 0x52, 0xfd, 0xbb, 0xa8,
   0xad, 0xfc, 0xff, 0xff, 0xff, 0x5f, 0xeb, 0xff, 0xff, 0x7f, 0xf5, 0x5a,
   0xa4, 0xfe, 0xaa, 0x52, 0xab, 0xfa, 0xff, 0xff, 0xff, 0x5f, 0xda, 0xff,
   0xff, 0xd7, 0xd6, 0x55, 0xa1, 0x7f, 0x96, 0x24, 0xb5, 0xfa, 0xff, 0xff,
   0xff, 0x5f, 0xd5, 0xff, 0xff, 0xbf, 0x5a, 0x5b, 0xa4, 0x7e, 0x15, 0x89,
   0xa4, 0xfa, 0xff, 0xff, 0xff, 0x57, 0xa9, 0xff, 0xff, 0xd5, 0x76, 0x55,
   0xd1, 0x5f, 0x20, 0x00, 0xa8, 0xfa, 0xff, 0xff, 0xff, 0xa9, 0x52, 0xff,
   0xbf, 0xb6, 0xd5, 0x55, 0xaa, 0x15, 0x8b, 0x04, 0xa5, 0xea, 0xfe, 0xff,
   0x4f, 0x22, 0xaa, 0xfe, 0xab, 0x55, 0xbb, 0x8a, 0x34, 0x51, 0x00, 0x08,
   0x00, 0x09, 0xf8, 0x0b, 0x90, 0xa4, 0x42, 0xf9, 0x2a, 0xaa, 0x6a, 0x35,
   0x49, 0x05, 0x0a, 0x00, 0x40, 0x20, 0x45, 0x20, 0x25, 0x01, 0x54, 0x55,
   0x55, 0xb5, 0x55, 0x45, 0x12, 0x50, 0x90, 0x00, 0x00, 0x00, 0x90, 0x00,
   0x00, 0x54, 0xa9, 0xaa, 0xa4, 0xaa, 0x6e, 0x15, 0x40, 0x05, 0x00, 0x10,
   0x00, 0x00, 0x24, 0x92, 0xa4, 0x00, 0xa2, 0xaa, 0x2a, 0xa9, 0xaa, 0x4a,
   0x02, 0x00, 0x21, 0x02, 0x00, 0x00, 0x44, 0x00, 0x00, 0x40, 0x24, 0xa5,
   0x54, 0xd5, 0x5a, 0x29, 0x00, 0x08, 0x80, 0x40, 0x00, 0x00, 0x00, 0x20,
   0x15, 0x00, 0x49, 0xa9, 0x52, 0x55, 0x55, 0x45, 0x00, 0x10, 0x04, 0x04,
   0x00, 0x00, 0x08, 0x02, 0x00, 0x00, 0x92, 0x4a, 0x8a, 0x54, 0xab, 0x08,
   0x04, 0x00, 0x00, 0x00, 0x80, 0x52, 0x02, 0x00, 0x00, 0x50, 0xa4, 0xaa,
   0x28, 0xa9, 0xaa, 0x92, 0x20, 0x00, 0x00, 0x40, 0x10, 0x80, 0x50, 0x02,
   0x00, 0x80, 0x88, 0x88, 0x42, 0xa5, 0x2a, 0x00, 0x00, 0x00, 0x00, 0x00,
   0x00, 0x00, 0x02, 0x00, 0x00, 0x00, 0x52, 0x55, 0x14, 0xaa, 0x4a, 0x15,
   0x00, 0x00, 0x00, 0x00, 0x00, 0x00, 0x00, 0x00, 0x00, 0x42, 0x84, 0x00,
   0xa5, 0x44, 0x29, 0x20, 0x00, 0x00, 0x00, 0x00, 0x00, 0x00, 0x00, 0x00,
   0x00, 0x00, 0x29, 0xaa, 0x10, 0x28, 0x85, 0x02, 0x40, 0x00, 0x00, 0x00,
   0x00, 0x00, 0x00, 0x00, 0x00, 0x00, 0x40, 0x00, 0x42, 0xa5, 0x28, 0x00,
   0x04, 0x00, 0x00, 0x00, 0x00, 0x00, 0x00, 0x00, 0x00, 0x28, 0x15, 0x29,
   0x08, 0x08, 0x81, 0x04, 0x00, 0x00, 0x00, 0x00, 0x00, 0x00, 0x00, 0x00,
   0x00, 0x00, 0x00, 0x40, 0x21, 0x51, 0x14, 0x20, 0x40, 0x00, 0x00, 0x00,
   0x40, 0x00, 0x00, 0x04, 0x00, 0x51, 0x00, 0x01, 0x00, 0x04, 0x41, 0x04,
   0x00, 0x09, 0x00, 0x00, 0x00, 0x90, 0x80, 0x00, 0x10, 0x00, 0x00, 0x00,
   0x80, 0x28, 0x08, 0x00, 0x00, 0x20, 0x20, 0x40, 0x00, 0x00, 0x04, 0x90,
   0x00, 0x00, 0x08, 0x04, 0x00, 0x80, 0x40, 0x00, 0x00, 0x02, 0x82, 0x08,
   0x44, 0x22, 0x20, 0x02, 0x25, 0x00, 0x00, 0x00, 0x00, 0x09, 0x04, 0x11,
   0x90, 0x48, 0x08, 0x02, 0x11, 0x80, 0x4a, 0x54, 0x00, 0x00, 0x00, 0x10,
   0x40, 0x40, 0x00, 0x00, 0x00, 0x00, 0x21, 0x10, 0x40, 0x14, 0x50, 0x81,
   0x00, 0x00, 0x00, 0x00, 0x00, 0x80, 0x08, 0x20, 0x00, 0x49, 0x88, 0x40,
   0x02, 0x41, 0x0b, 0x01, 0x00, 0x00, 0x00, 0x00, 0x00, 0x12, 0x00, 0x00,
   0x20, 0x00, 0x00, 0x02, 0x24, 0x12, 0x20, 0x00, 0x00, 0x00, 0x40, 0x00,
   0x00, 0x00, 0x00, 0x00, 0x84, 0x84, 0x04, 0x00, 0x80, 0x48, 0x01, 0x00,
   0x00, 0x00, 0x00, 0x00, 0x00, 0x00, 0x00, 0x28, 0x00, 0x10, 0x20, 0x44,
   0x10, 0x01, 0x00, 0x00, 0x00, 0x00, 0x00, 0x00, 0x00, 0x00, 0x00, 0x00,
   0x28, 0x01, 0x08, 0x00, 0x04, 0x00, 0x00, 0x00, 0x00, 0x00, 0x00, 0x00,
   0x00, 0x00, 0x00, 0x00, 0x00, 0x24, 0x41, 0x00, 0x00, 0x00, 0x00, 0x00,
   0x00, 0x00, 0x00, 0x00, 0x00, 0x00, 0x00, 0x20, 0x20, 0x01, 0x00, 0x02,
   0x00, 0x00, 0x00, 0x00, 0x00, 0x00, 0x00, 0x00, 0x00, 0x00, 0x00, 0x00,
   0x00, 0xa8, 0x24, 0x90, 0x08, 0x00, 0x00, 0x00, 0x00, 0x00, 0x00, 0x00,
   0x00, 0x00, 0x00, 0x10, 0x00, 0x01, 0x80, 0x04, 0x00, 0x00, 0x00, 0x00,
   0x00, 0x00, 0x00, 0x00, 0x00, 0x00, 0x00, 0x00, 0x00, 0x44, 0x2a, 0x00,
   0x00, 0x00, 0x00, 0x00, 0x00, 0x00, 0x00, 0x00, 0x00, 0x00, 0x00, 0x20,
   0x00, 0x00, 0x80, 0x00, 0x00, 0x00, 0x00, 0x00, 0x00, 0x00, 0x00, 0x00,
   0x00, 0x00, 0x00, 0x08, 0x00, 0x80, 0x08, 0x14, 0x00, 0x00, 0x00, 0x00,
   0x00, 0x00, 0x00, 0x00, 0x00, 0x00, 0x00, 0x00, 0x00, 0x08, 0x00, 0x00,
   0x00, 0x00, 0x00, 0x00, 0x00, 0x00, 0x00, 0x00, 0x00, 0x00, 0x00, 0x00,
   0x40, 0x00, 0x00, 0x00, 0x00, 0x00, 0x00, 0x00, 0x00, 0x00, 0x00, 0x00,
   0x00, 0x00, 0x00, 0x20, 0x00, 0x00, 0x00, 0x00, 0x00, 0x00, 0x00, 0x00,
   0x00, 0x00, 0x00, 0x00, 0x00, 0x00, 0x00, 0x00, 0x00, 0x00, 0x00, 0x00,
   0x00, 0x00, 0x00, 0x00, 0x00, 0x00, 0x00, 0x00, 0x00, 0x00, 0x00, 0x00,
   0x00, 0x00, 0x00, 0x00, 0x00, 0x00, 0x00, 0x00, 0x00, 0x00, 0x00, 0x00,
   0x00, 0x00, 0x00, 0x48, 0x00, 0x00, 0x00, 0x00, 0x00, 0x00, 0x00, 0x00,
   0x00, 0x00, 0x00, 0x00, 0x00, 0x00, 0x00, 0x00 };
